<svg xmlns:xlink="http://www.w3.org/1999/xlink" xmlns="http://www.w3.org/2000/svg" class="bk-icon -streamline-comparison" height="24" width="24" viewBox="0 0 24 24" role="presentation" aria-hidden="true" focusable="false"><path d="M1.5 6.75h21a.75.75 0 0 0 0-1.5h-21a.75.75 0 0 0 0 1.5zm1.466 11.474l3.75-12H5.284l3.75 12a.75.75 0 0 0 1.432-.448l-3.75-12c-.22-.701-1.213-.701-1.432 0l-3.75 12a.75.75 0 0 0 1.432.448zM9.75 18a3.75 3.75 0 1 1-7.5 0l-.75.75h9L9.75 18zm1.5 0a.75.75 0 0 0-.75-.75h-9a.75.75 0 0 0-.75.75 5.25 5.25 0 1 0 10.5 0zm3.716.224l3.75-12h-1.432l3.75 12a.75.75 0 0 0 1.432-.448l-3.75-12c-.22-.701-1.213-.701-1.432 0l-3.75 12a.75.75 0 0 0 1.432.448zM21.75 18a3.75 3.75 0 1 1-7.5 0l-.75.75h9l-.75-.75zm1.5 0a.75.75 0 0 0-.75-.75h-9a.75.75 0 0 0-.75.75 5.25 5.25 0 1 0 10.5 0zM12.75 6V1.5a.75.75 0 0 0-1.5 0V6a.75.75 0 0 0 1.5 0z" fill="#262626"></path></svg>