<svg xmlns:xlink="http://www.w3.org/1999/xlink" xmlns="http://www.w3.org/2000/svg" class="bk-icon -streamline-book" height="24" width="24" viewBox="0 0 24 24" role="presentation" aria-hidden="true" focusable="false"><path d="M21 22.5H5.25a1.5 1.5 0 0 1-1.5-1.5.75.75 0 0 0-1.5 0 3 3 0 0 0 3 3H21a.75.75 0 0 0 0-1.5zM6 0a3.75 3.75 0 0 0-3.75 3.75V21h1.5a1.5 1.5 0 0 1 1.5-1.5h15a1.5 1.5 0 0 0 1.5-1.5V1.5a1.5 1.5 0 0 0-1.5-1.5H6zm0 1.5h14.25V18h-15a3 3 0 0 0-3 3c0 1 1.5 1 1.5 0V3.75A2.25 2.25 0 0 1 6 1.5zm14.25 21.75v-4.5a.75.75 0 0 0-1.5 0v4.5a.75.75 0 0 0 1.5 0z" fill="#262626"></path></svg>