<svg xmlns:xlink="http://www.w3.org/1999/xlink" xmlns="http://www.w3.org/2000/svg" viewBox="0 0 25 28" fill="none" height="28" width="28"><path fill-rule="evenodd" clip-rule="evenodd" d="M6.583 27.52c-.265 0-.519-.062-.745-.181a1.575 1.575 0 01-.777-.932 1.574 1.574 0 01.11-1.207l1.48-3.081H4.563c-.992 0-1.886-.59-2.276-1.501l-1.65-3.726a1.6 1.6 0 011.465-2.235l1.867.084c.26.012.494.165.611.396l.684 1.358 2.4-.004-.646-1.301a1.603 1.603 0 01.302-1.842 1.585 1.585 0 011.128-.468H10.1c.503 0 .981.239 1.282.64l2.207 2.965 3.463-.005c1.591 0 2.881 1.277 2.889 2.846l-.002.082v.032a2.808 2.808 0 01-2.945 2.676l-3.588.001-3.912 4.821c-.309.369-.755.58-1.229.582H6.583zM2.08 16.098c-.065.004-.137.07-.137.157 0 .022.004.043.012.063l1.65 3.726c.167.387.542.636.957.636h3.234a.718.718 0 01.649 1.031l-1.987 4.135c-.036.069-.029.108-.021.132a.14.14 0 00.07.085c.02.011.047.017.077.017h1.679c.045 0 .089-.021.119-.058l4.12-5.08a.72.72 0 01.56-.266h3.965c.043.002.067.002.091.002.74 0 1.346-.574 1.381-1.307l.002-.057a1.418 1.418 0 00-1.42-1.396l-12.26.018a.716.716 0 01-.643-.396l-.693-1.38-1.405-.062zm6.257-1.732a.154.154 0 01.112-.046h1.65a.16.16 0 01.129.061l1.567 2.107-2.526.003-.961-1.942a.168.168 0 01-.017-.072c0-.043.017-.081.046-.11zM13.463 9.52c0 2.78 2.26 5.04 5.04 5.04 2.78 0 5.04-2.26 5.04-5.04 0-2.78-2.26-5.04-5.04-5.04-2.78 0-5.04 2.26-5.04 5.04zm1.44 0c0-1.985 1.615-3.6 3.6-3.6s3.6 1.615 3.6 3.6-1.615 3.6-3.6 3.6a3.604 3.604 0 01-3.6-3.6z" fill="#333333"></path><path d="M18.503 10.24a.72.72 0 01-.72-.72V8.08a.72.72 0 011.44 0v.72h.72a.72.72 0 010 1.44h-1.44z" fill="#333333"></path></svg>