<svg xmlns:xlink="http://www.w3.org/1999/xlink" xmlns="http://www.w3.org/2000/svg" aria-hidden="true" class="bk-icon -iconset-heart sr-wl-entry-heart-svg" focusable="false" role="presentation" size="medium" width="16" height="16" viewBox="0 0 128 128"><path d="M64 112a3.6 3.6 0 0 1-2-.5 138.8 138.8 0 0 1-44.2-38c-10-14.4-10.6-26-9.4-33.2a29 29 0 0 1 22.9-23.7c11.9-2.4 24 2.5 32.7 13a33.7 33.7 0 0 1 32.7-13 29 29 0 0 1 22.8 23.7c1.3 7.2.6 18.8-9.3 33.3-9.1 13.1-24 25.9-44.2 37.9a3.6 3.6 0 0 1-2 .5z" stroke="#FFFFFF" fill-opacity="0.3" fill="#000000" stroke-width="8px"></path></svg>