<svg xmlns:xlink="http://www.w3.org/1999/xlink" xmlns="http://www.w3.org/2000/svg" aria-hidden="true" class="bk-icon -iconset-thumbs_up_square 
pp-icon-valign--tbottom
js-preferred-property-copy-cached" data-bui-component="Tooltip" data-et-mouseenter="
customGoal:TPOaXGZCHQGPGJIMADXRT:1
" data-tooltip-position="bottom" data-tooltip-text="Ten obiekt uczestniczy w naszym Programie dla Partnerów Preferowanych. Oznacza to, że dostarcza on gościom pozytywnych wrażeń dzięki doskonałej obsłudze i rozsądnym cenom. Obiekty w programie mogą płacić Booking.com nieco wyższą prowizję za możliwość uczestnictwa." fill="#FEBB02" height="20" rel="300" width="20" viewBox="0 0 128 128" role="presentation" focusable="false"><path d="M112 8H16a8 8 0 0 0-8 8v96a8 8 0 0 0 8 8h96a8 8 0 0 0 8-8V16a8 8 0 0 0-8-8zM48 96H24V58h24zm56-25a8.7 8.7 0 0 1-2 6 8.9 8.9 0 0 1 1 4 6.9 6.9 0 0 1-5 7c-.5 4-4.8 8-9 8H56V58l10.3-23.3a5.4 5.4 0 0 1 10.1 2.7 10.3 10.3 0 0 1-.6 2.7L72 52h23c4.5 0 9 3.5 9 8a9.2 9.2 0 0 1-2 5.3 7.5 7.5 0 0 1 2 5.7z" fill="#FEBB02"></path></svg>