<svg xmlns:xlink="http://www.w3.org/1999/xlink" xmlns="http://www.w3.org/2000/svg" viewBox="0 0 25 28" fill="none" height="28" width="28"><path d="M9.86 18.16a.72.72 0 01-.72-.72v-.339a2.86 2.86 0 01-1.637-1.055.715.715 0 01-.14-.533.715.715 0 01.712-.623c.227 0 .436.104.573.284.265.35.688.558 1.13.558h.053c.743 0 1.289-.406 1.289-.767 0-.36-.54-.765-1.261-.765-1.489 0-2.7-.99-2.7-2.206 0-1.01.816-1.865 1.98-2.125V9.52a.722.722 0 011.441 0v.34c.648.149 1.232.521 1.637 1.053a.72.72 0 11-1.146.872 1.43 1.43 0 00-1.13-.558l-.053.002c-.742 0-1.288.404-1.288.765 0 .362.539.766 1.26.766 1.489 0 2.7.989 2.7 2.205 0 1.01-.815 1.865-1.98 2.125v.35a.72.72 0 01-.72.72z" fill="#333333"></path><path fill-rule="evenodd" clip-rule="evenodd" d="M22.311 27.309a.72.72 0 001.019-1.018l-6.263-6.264a9.382 9.382 0 002.272-6.128c0-5.193-4.226-9.419-9.42-9.419C4.727 4.48.5 8.706.5 13.9c0 5.193 4.226 9.419 9.42 9.418a9.38 9.38 0 006.128-2.273l6.263 6.264zM1.94 13.899c0-4.4 3.58-7.979 7.98-7.979s7.979 3.58 7.979 7.98-3.58 7.979-7.98 7.979-7.979-3.58-7.979-7.98z" fill="#333333"></path></svg>