<svg xmlns:xlink="http://www.w3.org/1999/xlink" xmlns="http://www.w3.org/2000/svg" class="bk-icon -streamline-mobile_phone" height="24" width="24" viewBox="0 0 24 24" role="presentation" aria-hidden="true" focusable="false"><path d="M18.001 12v8.25a2.25 2.25 0 0 1-2.25 2.25h-7.5a2.25 2.25 0 0 1-2.25-2.25V3.75a2.25 2.25 0 0 1 2.25-2.25h7.5a2.25 2.25 0 0 1 2.25 2.25V12zm1.5 0V3.75A3.75 3.75 0 0 0 15.751 0h-7.5a3.75 3.75 0 0 0-3.75 3.75v16.5A3.75 3.75 0 0 0 8.251 24h7.5a3.75 3.75 0 0 0 3.75-3.75V12zm-14.25 7.5h13.5a.75.75 0 0 0 0-1.5h-13.5a.75.75 0 0 0 0 1.5z" fill="#262626"></path></svg>