<svg xmlns:xlink="http://www.w3.org/1999/xlink" xmlns="http://www.w3.org/2000/svg" class="bk-icon -streamline-newspapers" height="24" width="24" viewBox="0 0 24 24" role="presentation" aria-hidden="true" focusable="false"><path d="M22.5 6v14.25a1.5 1.5 0 0 1-3 0V3A2.25 2.25 0 0 0 17.25.75h-15A2.25 2.25 0 0 0 0 3v17.25a3 3 0 0 0 3 3h18a.75.75 0 0 0 0-1.5H3a1.5 1.5 0 0 1-1.5-1.5V3a.75.75 0 0 1 .75-.75h15A.75.75 0 0 1 18 3v17.25a3 3 0 1 0 6 0V6a.75.75 0 0 0-1.5 0zm-18 9.75H15a.75.75 0 0 0 0-1.5H4.5a.75.75 0 0 0 0 1.5zm0 3h6a.75.75 0 0 0 0-1.5h-6a.75.75 0 0 0 0 1.5zm9.75-10.5v2.25h-9V6h9v2.25zm1.5 0V6a1.5 1.5 0 0 0-1.5-1.5h-9A1.5 1.5 0 0 0 3.75 6v4.5a1.5 1.5 0 0 0 1.5 1.5h9a1.5 1.5 0 0 0 1.5-1.5V8.25z" fill="#262626"></path></svg>