<svg xmlns:xlink="http://www.w3.org/1999/xlink" xmlns="http://www.w3.org/2000/svg" class="bk-icon -streamline-file_info" height="24" width="24" viewBox="0 0 24 24" role="presentation" aria-hidden="true" focusable="false"><path d="M22.5 17.25a5.25 5.25 0 1 1-10.5 0 5.25 5.25 0 0 1 10.5 0zm1.5 0a6.75 6.75 0 1 0-13.5 0 6.75 6.75 0 0 0 13.5 0zm-6 3v-3a.75.75 0 0 0-1.5 0v3a.75.75 0 0 0 1.5 0zm-.75-6.689a1.125 1.125 0 1 0 0 2.25 1.125 1.125 0 0 0 0-2.25.75.75 0 0 0 0 1.5.375.375 0 1 1 0-.75.375.375 0 0 1 0 .75.75.75 0 0 0 0-1.5zM3.75 7.5h10.5a.75.75 0 0 0 0-1.5H3.75a.75.75 0 0 0 0 1.5zm0 4.5h6a.75.75 0 0 0 0-1.5h-6a.75.75 0 0 0 0 1.5zm0 4.5H7.5a.75.75 0 0 0 0-1.5H3.75a.75.75 0 0 0 0 1.5zm3.75 3H2.25a.75.75 0 0 1-.75-.75V2.25a.75.75 0 0 1 .75-.75h10.629a.75.75 0 0 1 .53.22L16.28 4.59c.14.14.219.331.219.53V7.5a.75.75 0 0 0 1.5 0V5.121a2.25 2.25 0 0 0-.659-1.59L14.47.659A2.25 2.25 0 0 0 12.88 0H2.25A2.25 2.25 0 0 0 0 2.25v16.5A2.25 2.25 0 0 0 2.25 21H7.5a.75.75 0 0 0 0-1.5z" fill="#262626"></path></svg>