<svg xmlns:xlink="http://www.w3.org/1999/xlink" xmlns="http://www.w3.org/2000/svg" viewBox="0 0 24 24" fill="#333333" width="28" height="28"><path d="M20.538 12.078l-8.886 2.987.768.179-1.191-1.183a.75.75 0 00-.768-.179l-1.766.594a1.499 1.499 0 00-.64 2.421l2.389 2.674a2.25 2.25 0 002.4.632l2.615-.878-.982-.815-.53 3.78a1.5 1.5 0 001.962 1.631l1.362-.458c.422-.142.758-.463.92-.877l1.994-5.134-.46.439 2.488-.836a2.626 2.626 0 10-1.679-4.977c-.804.272-.61 1.461.24 1.461h.003v-.75l-.239-.71zm.478 1.422c.805-.27.61-1.461-.239-1.461h-.003v.75l.24.71a1.126 1.126 0 11.72 2.134l-2.487.836a.75.75 0 00-.46.44l-1.994 5.132-1.361.458.53-3.78a.75.75 0 00-.98-.816l-2.618.879a.75.75 0 01-.802-.21l-2.389-2.675v.001l1.766-.594-.768-.179 1.192 1.183c.2.2.498.27.767.179l8.886-2.987zm-2.301-.492l-2.78-1.915a1.503 1.503 0 00-1.328-.186l-1.34.45a1.499 1.499 0 00-.578 2.485l1.516 1.51a.75.75 0 001.058-1.064l-1.517-1.51-.001.001 1.34-.45c-.001 0 0 0 0 0l2.778 1.915a.75.75 0 10.852-1.236zM6.313 17.25A8.25 8.25 0 1118 9.75a.75.75 0 101.5 0A9.75 9.75 0 0013.812.887C8.918-1.357 3.13.793.887 5.688c-2.244 4.895-.095 10.682 4.8 12.926a.75.75 0 00.625-1.364zM3.759 3.506l5.281 2a.75.75 0 01.475.851L9.2 7.921a.75.75 0 01-.554.581l-2.079.52a.75.75 0 00-.515.45l-1.15 2.884a2.241 2.241 0 01-.84 1.036L2.22 14.654a.75.75 0 10.848 1.238l1.835-1.257a3.732 3.732 0 001.394-1.723l1.15-2.884-.515.45 2.079-.52a2.25 2.25 0 001.66-1.742l.314-1.563a2.25 2.25 0 00-1.416-2.55l-5.278-2a.75.75 0 00-.532 1.403zm11.571-.574l-1.472 2.925a2.25 2.25 0 00-.124 1.719l.555 1.661a.75.75 0 001.422-.474l-.553-1.661a.75.75 0 01.04-.572l1.472-2.924a.75.75 0 10-1.34-.674z" fill="#333333"></path></svg>